<?xml version="1.0" encoding="UTF-8"?>
<svg width="82px" height="60px" viewBox="0 0 82 60" version="1.1" xmlns="http://www.w3.org/2000/svg" xmlns:xlink="http://www.w3.org/1999/xlink">
    <!-- Generator: Sketch 51.3 (57544) - http://www.bohemiancoding.com/sketch -->
    <title>Brand / adidas</title>
    <desc>Created with Sketch.</desc>
    <defs></defs>
    <g id="Brand-/-adidas" stroke="none" stroke-width="1" fill="none" fill-rule="evenodd">
        <g id="Page-1-Copy" transform="translate(10.000000, 7.000000)">
            <polygon id="Clip-2" points="0 0 62 0 62 44 0 44"></polygon>
            <path d="M58.7394643,23.8403 L41.2322143,23.8513 C46.0671071,17.05 53.0077857,13.2077 62,11.8437 C61.4375714,16.3922 60.3891071,20.2554 58.7394643,23.8403 Z M37.8078214,23.8601 L23.6873214,23.8601 C23.3717857,14.7719 25.8894286,5.5506 30.7531071,0 C35.6920714,5.4065 38.2484643,14.5904 37.8078214,23.8601 Z M20.2164286,23.8304 L3.04242857,23.8403 C1.46807143,20.207 0.477178571,16.4593 0,11.8063 C8.84939286,13.3782 15.6760357,17.0126 20.2164286,23.8304 Z M55.4113929,30.5261 L6.22657143,30.5448 C5.56892857,29.6296 4.81607143,28.3415 4.34885714,27.3207 L57.2913214,27.3207 C56.7953214,28.4658 56.1277143,29.524 55.4113929,30.5261 Z M49.7372857,36.7235 L11.6803571,36.7037 C10.4137857,35.6939 9.55464286,35.1692 8.53385714,33.825 L52.9325,33.825 C51.9393929,34.9107 50.8056786,35.8941 49.7372857,36.7235 Z M33.6516071,39.3745 L27.6719286,39.3844 C28.5111429,41.1301 29.5806429,42.5986 30.8007143,44 C32.0019643,42.5689 32.8024286,41.0916 33.6516071,39.3745 Z M34.8993571,39.3943 L34.2505714,43.3807 C38.6016429,42.5788 42.4334643,41.3204 45.7604286,39.3943 L34.8993571,39.3943 Z M26.6046429,39.3844 L15.72475,39.3844 C18.9764286,41.3963 22.7805714,42.7317 27.1095,43.6271 L26.6046429,39.3844 Z" id="Fill-1" fill="#333"></path>
        </g>
    </g>
</svg>