<?xml version="1.0" encoding="UTF-8"?>
<svg width="116px" height="60px" viewBox="0 0 116 60" version="1.1" xmlns="http://www.w3.org/2000/svg" xmlns:xlink="http://www.w3.org/1999/xlink">
    <!-- Generator: Sketch 51.3 (57544) - http://www.bohemiancoding.com/sketch -->
    <title>Brand / ASICS Tiger</title>
    <desc>Created with Sketch.</desc>
    <defs>
        <polygon id="path-1" points="0.946993548 0.33 9.60144516 0.33 9.60144516 20.9521714 0.946993548 20.9521714"></polygon>
        <polygon id="path-3" points="0 0.33 14.9456516 0.33 14.9456516 20.9430571 0 20.9430571"></polygon>
        <polygon id="path-5" points="0 21.6702095 95.7997419 21.6702095 95.7997419 1.04782857 0 1.04782857"></polygon>
    </defs>
    <g id="Brand-/-ASICS-Tiger" stroke="none" stroke-width="1" fill="none" fill-rule="evenodd">
        <g id="ASICS" transform="translate(10.000000, 19.000000)">
            <g id="Group-19">
                <path d="M19.0915097,10.0697143 L18.1149935,9.31019048 C17.5255742,8.8827619 17.1436387,8.19971429 17.1436387,7.42761905 C17.1436387,6.13171429 18.2151226,5.08409524 19.5343484,5.08409524 L19.4455742,5.08304762 L21.5709935,5.08304762 L21.5709935,1.0507619 L19.5343484,1.0507619 C15.9420903,1.0507619 13.0300903,3.90342857 13.0300903,7.42761905 C13.0300903,9.57733333 14.1160258,11.4808571 15.7810581,12.6353333 L16.7895742,13.4304762 C17.3242839,13.8851429 17.6638968,14.5650476 17.6638968,15.2941905 C17.6638968,16.5167619 16.7111226,17.5193333 15.4899613,17.6282857 L15.4899613,21.6689524 C18.9831226,21.5579048 21.7774452,18.7471429 21.7774452,15.2941905 C21.7774452,13.1727619 20.7204129,11.255619 19.0915097,10.0697143" id="Fill-1" fill="#333"></path>
                <g id="Group-5" transform="translate(35.096774, 0.717829)">
                    <mask id="mask-2" fill="white">
                        <use xlink:href="#path-1"></use>
                    </mask>
                    <g id="Clip-4"></g>
                    <path d="M6.9444129,9.30579048 C6.06389677,8.61750476 5.06363871,7.94493333 5.06363871,6.70874286 C5.06363871,5.41388571 6.03912258,4.36521905 7.35834839,4.36521905 L7.26957419,4.36417143 L9.39499355,4.36417143 L9.39499355,0.329790476 L7.35834839,0.329790476 C3.76712258,0.329790476 0.946993548,3.18664762 0.946993548,6.70874286 C0.946993548,7.44417143 1.07396129,8.19740952 1.33615484,8.88569524 C1.78931613,10.0810286 2.47060645,11.0322667 3.47396129,11.8263619 C3.84660645,12.1228381 4.24402581,12.4130286 4.58776774,12.7398857 C5.09976774,13.2270286 5.48686452,13.7958857 5.48686452,14.5763619 C5.48686452,15.7989333 4.53512258,16.8015048 3.31602581,16.9104571 L3.31602581,20.9521714 C6.8091871,20.8400762 9.60144516,18.0293143 9.60144516,14.5763619 C9.60144516,13.8063619 9.46209032,13.0091238 9.18028387,12.2915048 C8.69821935,11.0647429 7.97976774,10.1145524 6.9444129,9.30579048" id="Fill-3" fill="#333" mask="url(#mask-2)"></path>
                </g>
                <g id="Group-8" transform="translate(0.000000, 0.717829)">
                    <mask id="mask-4" fill="white">
                        <use xlink:href="#path-3"></use>
                    </mask>
                    <g id="Clip-7"></g>
                    <path d="M12.9141677,14.5766762 C12.9141677,13.281819 12.7861677,6.70905714 12.7861677,6.70905714 C12.7861677,3.18591429 9.87313548,0.329057143 6.28190968,0.329057143 L4.13378065,0.329057143 L4.13378065,4.36553333 L6.28190968,4.36553333 C7.60010323,4.36553333 8.67055484,5.4142 8.67055484,6.70905714 C8.67055484,6.70905714 8.68190968,7.34077143 8.69842581,8.25010476 C8.01094194,8.00810476 7.27907097,7.68334286 6.50384516,7.68334286 C2.77223226,7.68334286 -0.000412903226,10.9079143 -0.000412903226,14.2561048 C-0.000412903226,17.7802952 2.91261935,20.6361048 6.50384516,20.6361048 L8.63029677,20.6361048 L8.63029677,16.6017238 L6.50384516,16.6017238 C5.18565161,16.6017238 4.1152,15.5509619 4.1152,14.2561048 C4.1152,12.9633429 5.18565161,11.7187714 6.50384516,11.7187714 C8.00578065,11.7187714 8.66745806,13.2283905 8.70565161,13.3467714 C8.82952258,13.7281048 8.89042581,14.0622952 8.89042581,14.2602952 C8.89042581,18.2412476 11.1954581,20.7209619 14.9456516,20.9430571 L14.9456516,16.889819 C13.7895226,16.7222 12.9141677,16.0716286 12.9141677,14.5766762" id="Fill-6" fill="#333" mask="url(#mask-4)"></path>
                </g>
                <mask id="mask-6" fill="white">
                    <use xlink:href="#path-5"></use>
                </mask>
                <g id="Clip-10"></g>
                <polygon id="Fill-9" fill="#333" mask="url(#mask-6)" points="22.1016774 5.08325714 26.2162581 5.08325714 26.2162581 1.04678095 22.1016774 1.04678095"></polygon>
                <polygon id="Fill-11" fill="#333" mask="url(#mask-6)" points="22.1016774 21.3538286 26.2162581 21.3538286 26.2162581 5.60287619 22.1016774 5.60287619"></polygon>
                <polygon id="Fill-12" fill="#333" mask="url(#mask-6)" points="56.2023226 21.3538286 60.315871 21.3538286 60.315871 5.60287619 56.2023226 5.60287619"></polygon>
                <polygon id="Fill-13" fill="#333" mask="url(#mask-6)" points="56.2023226 5.08325714 60.315871 5.08325714 60.315871 1.04678095 56.2023226 1.04678095"></polygon>
                <polygon id="Fill-14" fill="#333" mask="url(#mask-6)" points="45.1283613 5.08325714 48.2881032 5.08325714 48.2881032 21.3538286 52.4026839 21.3538286 52.4026839 5.08325714 55.5252645 5.08325714 55.5252645 1.04678095 45.1283613 1.04678095"></polygon>
                <path d="M68.1817806,16.7011429 C66.3443613,15.6042857 65.119071,13.6221905 65.119071,11.3582857 C65.119071,8.15780952 67.5727484,5.46438095 70.9544258,5.09980952 L71.8235871,5.09980952 L71.8235871,1.04971429 L70.9544258,1.04971429 C65.2966194,1.42790476 61.0024258,5.92952381 61.0024258,11.3582857 C61.0024258,17.0384762 65.6981677,21.6417143 71.4901677,21.6417143 L72.295329,21.6689524 L72.295329,19.9110476 L72.295329,17.635619 L72.295329,9.18761905 L68.1817806,9.18761905 L68.1817806,16.7011429 Z" id="Fill-15" fill="#333" mask="url(#mask-6)"></path>
                <path d="M30.5799226,11.3587048 C30.5799226,8.15718095 33.0336,5.4648 36.4163097,5.09918095 L36.4163097,1.04908571 C30.757471,1.42832381 26.4653419,5.92889524 26.4653419,11.3587048 C26.4653419,17.0388952 31.1600516,21.6410857 36.9520516,21.6410857 L37.7582452,21.6693714 L37.7582452,17.6349905 L36.9520516,17.6067048 C33.4320516,17.6067048 30.5799226,14.8106095 30.5799226,11.3587048" id="Fill-16" fill="#333" mask="url(#mask-6)"></path>
                <path d="M72.6323613,11.3587048 C72.6323613,16.8639429 77.0401032,21.3540381 82.5843613,21.6285143 L82.5843613,17.5847048 C79.9634581,17.3709905 77.7957161,15.6047048 77.0380387,13.2255619 L82.5843613,13.2255619 L82.5843613,9.1880381 L77.1443613,9.1880381 C77.967071,7.01108571 80.0057806,5.37994286 82.5843613,5.09918095 L82.5843613,1.04908571 C76.9265548,1.42832381 72.6323613,5.92889524 72.6323613,11.3587048" id="Fill-17" fill="#333" mask="url(#mask-6)"></path>
                <path d="M88.9101419,9.19799048 L87.2378839,9.19799048 L87.2378839,5.2390381 C87.6074323,5.24532381 88.4404645,5.22437143 88.9194323,5.22437143 C90.1209806,5.22437143 91.0737548,6.05094286 91.0737548,7.18865714 C91.0737548,8.32427619 90.1839484,9.19799048 88.9101419,9.19799048 M91.2884645,12.9170381 C93.1640774,12.1208476 95.1697548,10.2246571 95.1697548,7.18341905 C95.1697548,3.41408571 92.0162065,1.08941905 89.0866581,1.08941905 L87.2378839,1.08941905 L83.1233032,1.08941905 L83.1233032,21.3545619 L87.2378839,21.3545619 L87.2378839,13.6755143 C88.1700129,18.0493238 91.7571097,20.9082762 95.8004645,21.5745619 L95.8004645,17.3673238 C93.4624,16.7188476 91.8716903,15.2322762 91.2884645,12.9170381" id="Fill-18" fill="#333" mask="url(#mask-6)"></path>
            </g>
        </g>
    </g>
</svg>