<svg xmlns="http://www.w3.org/2000/svg" width="90" height="40" viewBox="0 0 90 40">
  <defs>
    <style>
      .a {
        fill: #333;
      }
    </style>
  </defs>
  <title>reebok_classic</title>
  <g>
    <path class="a" d="M44.943,30.441a2.49,2.49,0,0,1,.791,1.579h-.9a1.729,1.729,0,0,0-1.874-1.449,2.02,2.02,0,0,0-1.61.72,3.376,3.376,0,0,0-.612,2.209,3.259,3.259,0,0,0,.554,1.976,1.9,1.9,0,0,0,1.648.76,1.723,1.723,0,0,0,1.535-.8,3.11,3.11,0,0,0,.42-1.1h.893a3.189,3.189,0,0,1-.795,1.846,2.777,2.777,0,0,1-2.168.893,2.838,2.838,0,0,1-1.984-.734,3.883,3.883,0,0,1-1.056-3,3.893,3.893,0,0,1,.8-2.523,2.867,2.867,0,0,1,2.368-1.072,2.731,2.731,0,0,1,1.995.7"/>
    <polygon class="a" points="48.659 29.934 49.598 29.934 49.598 36.061 53.002 36.061 53.002 36.886 48.659 36.886 48.659 29.934"/>
    <path class="a" d="M57.038,34.034l1.087-3.068,1.054,3.068Zm-1.959,2.852h.947l.737-2.088h2.674l.714,2.088h.989l-2.47-6.952H57.645Z"/>
    <path class="a" d="M64.282,34.628a1.953,1.953,0,0,0,.26.96,1.7,1.7,0,0,0,1.556.693,2.6,2.6,0,0,0,.908-.153,1.075,1.075,0,0,0,.793-1.06.94.94,0,0,0-.337-.819,3.147,3.147,0,0,0-1.065-.4l-.893-.211a3.827,3.827,0,0,1-1.235-.455,1.475,1.475,0,0,1-.629-1.3,2.041,2.041,0,0,1,.618-1.534,2.4,2.4,0,0,1,1.748-.6,2.908,2.908,0,0,1,1.76.529,1.942,1.942,0,0,1,.726,1.689h-.865a1.852,1.852,0,0,0-.282-.861,1.579,1.579,0,0,0-1.364-.543,1.5,1.5,0,0,0-1.12.35,1.115,1.115,0,0,0-.342.812.811.811,0,0,0,.406.749,5.9,5.9,0,0,0,1.193.379l.923.219a2.836,2.836,0,0,1,1.027.442,1.683,1.683,0,0,1,.625,1.415,1.787,1.787,0,0,1-.8,1.651,3.457,3.457,0,0,1-1.858.5,2.684,2.684,0,0,1-1.931-.666,2.277,2.277,0,0,1-.687-1.781Z"/>
    <path class="a" d="M72.319,34.628a2.008,2.008,0,0,0,.26.96,1.7,1.7,0,0,0,1.557.693,2.636,2.636,0,0,0,.912-.153,1.075,1.075,0,0,0,.791-1.06.954.954,0,0,0-.338-.819,3.22,3.22,0,0,0-1.068-.4l-.891-.211a3.8,3.8,0,0,1-1.237-.455,1.479,1.479,0,0,1-.628-1.3,2.042,2.042,0,0,1,.619-1.534,2.392,2.392,0,0,1,1.744-.6,2.939,2.939,0,0,1,1.768.529,1.953,1.953,0,0,1,.723,1.689h-.866a1.83,1.83,0,0,0-.281-.861,1.591,1.591,0,0,0-1.365-.543,1.5,1.5,0,0,0-1.12.35,1.129,1.129,0,0,0-.34.812.812.812,0,0,0,.4.749,6.024,6.024,0,0,0,1.2.379l.919.219a2.76,2.76,0,0,1,1.027.442,1.683,1.683,0,0,1,.629,1.415,1.793,1.793,0,0,1-.8,1.651,3.469,3.469,0,0,1-1.86.5,2.7,2.7,0,0,1-1.937-.666,2.282,2.282,0,0,1-.679-1.781Z"/>
    <rect class="a" x="79.96" y="29.932" width="0.932" height="6.954"/>
    <path class="a" d="M88.951,30.441a2.478,2.478,0,0,1,.786,1.579h-.894a1.73,1.73,0,0,0-1.875-1.449,2.032,2.032,0,0,0-1.612.72,3.387,3.387,0,0,0-.613,2.209,3.279,3.279,0,0,0,.552,1.976,1.91,1.91,0,0,0,1.652.76,1.726,1.726,0,0,0,1.536-.8,3.091,3.091,0,0,0,.419-1.1H89.8a3.205,3.205,0,0,1-.791,1.844,3.067,3.067,0,0,1-4.156.161,3.876,3.876,0,0,1-1.058-3,3.888,3.888,0,0,1,.8-2.523,2.856,2.856,0,0,1,2.362-1.072,2.746,2.746,0,0,1,2,.7"/>
    <path class="a" d="M77.173,10.3h4.282v7h1.692c1.674-.141,2.553-1.808,2.5-3.582h4.23c.021,3.113-.792,4.546-3.088,5.4A4.5,4.5,0,0,1,90,23.859v2.395H85.74V23.732a2.956,2.956,0,0,0-3.021-2.8H81.455v5.319H77.173Z"/>
    <path class="a" d="M61.465,20.1c0-3.617,2.653-6.564,7.3-6.564,4.692,0,7.312,2.947,7.312,6.564s-2.771,6.571-7.312,6.571c-4.348,0-7.3-2.942-7.3-6.571m7.3,3.09a3.1,3.1,0,1,0-3.078-3.114,3.088,3.088,0,0,0,3.078,3.114"/>
    <path class="a" d="M54.582,13.734H51.694v3.633l2.058.007a2.632,2.632,0,0,1,.066,5.239H50.793V10.3H46.522V26.257H53.8c3.063,0,6.671-2.315,6.671-6.147a6.094,6.094,0,0,0-5.884-6.376"/>
    <path class="a" d="M16.006,15.667c0-3.563-3.309-5.592-6.2-5.592H0V26.254H4.15V13.811l4.809.009a2.439,2.439,0,0,1,2.656,2.623,2.44,2.44,0,0,1-2.363,2.59l-.126.009H5.349v3.58c.712,0,2.505,0,2.505,0,2.063.085,3.138.967,3.154,3.3v3.734l4.345,0V24.821A4.592,4.592,0,0,0,12.532,20.9l-.021-.034.035-.032a5.259,5.259,0,0,0,3.46-5.169"/>
    <path class="a" d="M37.8,22.635a2.641,2.641,0,0,1,0-5.281h2.845l-2.573,4.359H42.22l2.665-4.227V13.743l-7.7.009a6.254,6.254,0,0,0,0,12.505h7.724V22.635Z"/>
    <path class="a" d="M20.542,20a2.619,2.619,0,0,1,2.593-2.642h2.844L23.4,21.716h4.151l2.658-4.23V13.743l-7.7.009a6.252,6.252,0,0,0,0,12.5h7.717V22.635h-7.1A2.615,2.615,0,0,1,20.542,20"/>
  </g>
</svg>
